<?xml version="1.0" encoding="utf-8"?>
<!-- Generator: Adobe Illustrator 18.0.0, SVG Export Plug-In . SVG Version: 6.00 Build 0)  -->
<!DOCTYPE svg PUBLIC "-//W3C//DTD SVG 1.1//EN" "http://www.w3.org/Graphics/SVG/1.1/DTD/svg11.dtd">
<svg version="1.1" id="Layer_1" xmlns="http://www.w3.org/2000/svg" xmlns:xlink="http://www.w3.org/1999/xlink" x="0px" y="0px"
	 viewBox="0 0 93.7 108.3" enable-background="new 0 0 93.7 108.3" xml:space="preserve">
<path fill-rule="evenodd" clip-rule="evenodd" fill="#221F20" d="M82.5,3.4l1.2-0.3L87,17.2l-0.7,1.1l-14.5,3.4L82.5,3.4z
	 M48.9,66.9c6.1,0,11,4.9,11,11c0,6.1-4.9,11-11,11c-6.1,0-11-4.9-11-11C37.9,71.8,42.8,66.9,48.9,66.9L48.9,66.9z M45.5,72.1
	l9.2,5.8l-9.2,5.8V72.1z M8.4,52.2L8.4,52.2l0-5L14.4,37H27l-8.9,15.2h10.6L37.6,37h12.6l-8.9,15.2h12.1L62.3,37h12.6L66,52.2h11.5
	L86.4,37h3v15.2h0v51.3h-81V52.2z M20.3,59.8h57.1V96H20.3V59.8z M8.4,32.2c2.4,0,4.4,2,4.4,4.4c0,2.4-2,4.4-4.4,4.4
	C6,41,4,39.1,4,36.6C4,34.2,6,32.2,8.4,32.2L8.4,32.2z M4.9,21.6l9.8-2.3L7.4,32L4.9,21.6z M26.9,16.4L41.5,13L30.8,31.4l-14.5,3.4
	L26.9,16.4z M53.9,10.1l14.6-3.4L57.8,25.1l-14.6,3.4L53.9,10.1z"/>
</svg>
