<?xml version="1.0" encoding="UTF-8" standalone="no"?>
<svg
   xmlns:dc="http://purl.org/dc/elements/1.1/"
   xmlns:cc="http://creativecommons.org/ns#"
   xmlns:rdf="http://www.w3.org/1999/02/22-rdf-syntax-ns#"
   xmlns:svg="http://www.w3.org/2000/svg"
   xmlns="http://www.w3.org/2000/svg"
   width="52.084431mm"
   height="2.7642832mm"
   viewBox="0 0 52.084431 2.7642832"
   version="1.1"
   id="svg8">
  <defs
     id="defs2" />
  <metadata
     id="metadata5">
    <rdf:RDF>
      <cc:Work
         rdf:about="">
        <dc:format>image/svg+xml</dc:format>
        <dc:type
           rdf:resource="http://purl.org/dc/dcmitype/StillImage" />
        <dc:title></dc:title>
      </cc:Work>
    </rdf:RDF>
  </metadata>
  <g
     id="layer1"
     transform="translate(361.48305,567.97529)">
    <path
       style="fill:none;stroke:#000000;stroke-width:2.5;stroke-linecap:butt;stroke-linejoin:miter;stroke-miterlimit:4;stroke-dasharray:none;stroke-opacity:1"
       d="m -264.58333,-105.83333 52.91667,-79.375 52.91666,79.375 52.91667,-79.375 52.916664,79.375 L 0,-185.20833 l 52.916666,79.375 52.916664,-79.375 52.91667,79.375 52.91666,-79.375 52.91667,79.375 52.91667,-79.375 52.91666,79.375 v 0 0"
       id="path12" />
    <path
       style="fill:none;stroke:#000000;stroke-width:1.31762;stroke-linecap:butt;stroke-linejoin:miter;stroke-miterlimit:4;stroke-dasharray:none;stroke-opacity:1"
       d="m -264.58332,-264.58333 c 0,0 26.9553,-26.45833 44.09722,-26.45833 17.14192,0 26.9553,26.45833 44.09722,26.45833 17.14192,0 26.9553,-26.45833 44.09722,-26.45833 17.14192,0 26.95531,26.45833 44.097226,26.45833 17.141914,0 26.955294,-26.45833 44.097208,-26.45833 17.141919,0 26.955306,26.45833 44.0972243333434,26.45833 C 17.141916,-264.58333 26.9553,-291.04166 44.097217,-291.04166 c 17.141924,0 26.955317,26.45833 44.097241,26.45833 17.141912,0 26.955292,-26.45833 44.097202,-26.45833 17.14192,0 26.9553,26.45833 44.09722,26.45833 8.24249,0 14.79059,-6.11731 21.27376,-12.46906 6.99988,-6.85799 13.92406,-13.98927 22.82349,-13.98927 17.14191,0 44.0972,26.45833 44.0972,26.45833 v 0 0"
       id="path12-9" />
    <path
       style="fill:none;stroke:#000000;stroke-width:2.5;stroke-linecap:butt;stroke-linejoin:miter;stroke-miterlimit:4;stroke-dasharray:none;stroke-opacity:1"
       d="M -264.58334,0 -211.66667,-79.375 -158.75,0 -105.83334,-79.375 -52.916666,0 -1.6e-5,-79.375 52.916654,0 105.83333,-79.375 158.75002,0 211.66665,-79.375 264.58332,0 317.50002,-79.375 370.41665,0 v 0 0"
       id="path12-9-6" />
    <path
       style="fill:none;stroke:#000000;stroke-width:2.5;stroke-linecap:butt;stroke-linejoin:miter;stroke-miterlimit:4;stroke-dasharray:none;stroke-opacity:1"
       d="m -264.58333,-317.5 c 0,0 26.9553,-26.45833 44.09722,-26.45833 17.14192,0 26.9553,26.45833 44.09722,26.45833 17.14193,0 26.95531,-26.45833 44.09723,-26.45833 17.14192,0 26.95531,26.45833 44.09722,26.45833 17.14192,0 26.9553,-26.45833 44.09721,-26.45833 17.14192,0 26.95531,26.45833 44.09723,26.45833 17.1419,0 26.9553,-26.45833 44.0972,-26.45833 17.14193,0 26.95533,26.45833 44.09726,26.45833 10.290023,0 17.93928,-9.53403 26.11819,-17.15584 5.44614,-5.07518 11.12713,-9.30249 17.97902,-9.30249 17.1419,0 26.9553,26.45833 44.0972,26.45833 8.24251,0 14.79061,-6.11731 21.27377,-12.46906 6.99987,-6.85799 13.92407,-13.98927 22.82349,-13.98927 17.1419,0 44.0972,26.45833 44.0972,26.45833 v 0 0"
       id="path12-9-7" />
    <path
       style="fill:none;stroke:#000000;stroke-width:1.31762;stroke-linecap:butt;stroke-linejoin:miter;stroke-miterlimit:4;stroke-dasharray:none;stroke-opacity:1"
       d="m -264.58333,-211.66666 c 0,0 26.9553,-26.45833 44.09722,-26.45833 17.14192,0 26.9553,26.45833 44.09722,26.45833 17.14192,0 26.9553,-26.45833 44.09722,-26.45833 17.14192,0 26.95531,26.45833 44.09722,26.45833 17.14192,0 26.9553,-26.45833 44.097214,-26.45833 17.14192,0 26.95531,26.45833 44.0972299999801,26.45833 C 17.141894,-211.66666 26.955294,-238.12499 44.097194,-238.12499 c 17.14193,0 26.95533,26.45833 44.09726,26.45833 17.141906,0 26.955296,-26.45833 44.097206,-26.45833 17.1419,0 26.9553,26.45833 44.0972,26.45833 8.24251,0 14.79061,-6.11731 21.27377,-12.46906 6.99987,-6.85799 13.92407,-13.98927 22.82349,-13.98927 17.1419,0 44.0972,26.45833 44.0972,26.45833 v 0 0"
       id="path12-9-2" />
    <path
       style="fill:none;stroke:#ffbdba;stroke-width:2.5;stroke-linecap:butt;stroke-linejoin:miter;stroke-miterlimit:4;stroke-dasharray:none;stroke-opacity:1"
       d="m -291.04166,-370.41666 c 0,0 26.9553,-26.45833 44.09722,-26.45833 17.14192,0 26.9553,26.45833 44.09722,26.45833 17.14193,0 26.95531,-26.45833 44.09723,-26.45833 17.14192,0 26.95531,26.45833 44.09722,26.45833 17.14192,0 26.95531,-26.45833 44.097207,-26.45833 17.14193,0 26.95532,26.45833 44.09723,26.45833 17.1419,0 26.9553,-26.45833 44.0972,-26.45833 17.14193,0 26.95533,26.45833 44.09726,26.45833 17.14193,0 26.9553,-26.45833 44.097233,-26.45833 17.14188,0 26.9553,26.45833 44.09718,26.45833 8.24251,0 14.79063,-6.11731 21.27377,-12.46906 6.99987,-6.85799 13.92406,-13.98927 22.82348,-13.98927 17.14191,0 44.09721,26.45833 44.09721,26.45833 v 0 0"
       id="path12-9-7-3" />
    <path
       style="fill:none;stroke:#ffffff;stroke-width:2.5;stroke-linecap:butt;stroke-linejoin:miter;stroke-miterlimit:4;stroke-dasharray:none;stroke-opacity:1"
       d="m -291.04166,-423.33333 c 0,0 26.9553,-26.45833 44.09722,-26.45833 17.14192,0 26.9553,26.45833 44.09722,26.45833 17.14192,0 26.9553,-26.45833 44.09722,-26.45833 17.14192,0 26.95532,26.45833 44.09723,26.45833 17.141917,0 26.955307,-26.45833 44.097207,-26.45833 17.14193,0 26.95532,26.45833 44.09723,26.45833 17.1419,0 26.9553,-26.45833 44.0972,-26.45833 17.14193,0 26.95533,26.45833 44.09726,26.45833 17.14193,0 26.9553,-26.45833 44.097233,-26.45833 17.14188,0 26.9553,26.45833 44.09718,26.45833 8.24251,0 14.79063,-6.11731 21.27377,-12.46906 6.99987,-6.85799 13.92406,-13.98927 22.82348,-13.98927 17.14191,0 44.09721,26.45833 44.09721,26.45833 v 0 0"
       id="path12-9-7-3-2" />
    <path
       style="fill:none;stroke:#ffbdba;stroke-width:0.543983;stroke-linecap:butt;stroke-linejoin:miter;stroke-miterlimit:4;stroke-dasharray:none;stroke-opacity:1"
       d="m -361.3078,-565.483 c 0,0 2.63528,-2.2203 4.31116,-2.2203 1.67588,0 2.63529,2.2203 4.31116,2.2203 1.67588,0 2.63528,-2.2203 4.31117,-2.2203 1.67587,0 2.63528,2.2203 4.31115,2.2203 1.67588,0 2.63529,-2.2203 4.31117,-2.2203 1.67587,0 2.63528,2.2203 4.31115,2.2203 1.67588,0 2.63528,-2.2203 4.31117,-2.2203 1.67587,0 2.63528,2.2203 4.31116,2.2203 1.67587,0 2.63528,-2.2203 4.31116,-2.2203 1.67588,0 2.63529,2.2203 4.31116,2.2203 0.80582,0 1.446,-0.51335 2.07982,-1.04637 0.68435,-0.57549 1.36129,-1.17393 2.23135,-1.17393 1.67587,0 4.31115,2.2203 4.31115,2.2203 v 0 0"
       id="path12-9-7-3-1" />
  </g>
</svg>
